# xmcd
#
# Track frame offsets: 
#        150
#        15783
#        31524
#        45900
#        65758
#        81420
#        97256
#        116502
#        132029
#        153642
#        169331
#        188590
#
# Disc length: 2799 seconds
#
# Revision: 2
# Processed by: cddbd v1.4PL0 Copyright (c) Steve Scherf et al.
# Submitted via: ExactAudioCopy v0.90b2
#
DISCID=8f0aed0c
DTITLE=T.G. Sheppard - Nothin' On But The Radio
DYEAR=1900
DGENRE=Country
TTITLE0=She's Gettin' The Rock
TTITLE1=Nothin' On But The Radio
TTITLE2=Whatever Your Looking For, You're Lookin' At
TTITLE3=You Can't Take It With You When You Go
TTITLE4=It's All Over Town
TTITLE5=I Bring Her Flowers (Every Day)
TTITLE6=Ghost Town
TTITLE7=(There Ain't Nothin') Like A Coupe DeVille
TTITLE8=Another Cup Of Coffee
TTITLE9=It Stilll Rains In Memphis
TTITLE10=Long Cool Woman In A Black Dress
TTITLE11=It's All Over Now
EXTD=
EXTT0=
EXTT1=
EXTT2=
EXTT3=
EXTT4=
EXTT5=
EXTT6=
EXTT7=
EXTT8=
EXTT9=
EXTT10=
EXTT11=
PLAYORDER=
